<svg id="initials" xmlns="http://www.w3.org/2000/svg" viewBox="0 0 104.5 104.5"><defs><style>.cls-1{fill:none;stroke:#231f20;}</style></defs><title>initials-circle</title><path class="cls-1" d="M269,363.65h8.23v28.59q0,6.83-1.08,9.58a9.09,9.09,0,0,1-3.57,4.38,10.69,10.69,0,0,1-6,1.63q-7.12,0-12.13-6.24l5.92-5.54a14,14,0,0,0,3.34,3,5.5,5.5,0,0,0,2.67.76,2.12,2.12,0,0,0,2-1.11q0.64-1.11.64-4.89V363.65Z" transform="translate(-241.89 -333.25)"/><path class="cls-1" d="M326.9,370.69l-5.78,5.71a17.08,17.08,0,0,0-12.79-5.8,14.61,14.61,0,0,0-10.66,4.22,13.83,13.83,0,0,0-4.3,10.25,14.19,14.19,0,0,0,4.46,10.58,15.16,15.16,0,0,0,11,4.34A13.49,13.49,0,0,0,316,398.2a12.58,12.58,0,0,0,4.71-5.6H308.24v-7.71h21.68l0.06,1.82A21.11,21.11,0,0,1,327,397.43a20.48,20.48,0,0,1-7.59,7.73,21.62,21.62,0,0,1-10.93,2.67,24.27,24.27,0,0,1-12-2.92,21.32,21.32,0,0,1-8.32-8.31A23.16,23.16,0,0,1,285.18,385a21.62,21.62,0,0,1,5.65-14.88q6.71-7.53,17.46-7.53a26.6,26.6,0,0,1,10.52,2.08A24.12,24.12,0,0,1,326.9,370.69Z" transform="translate(-241.89 -333.25)"/><circle class="cls-1" cx="52.25" cy="52.25" r="51.75"/></svg>